<?xml version="1.0" encoding="utf-8" ?>
<svg baseProfile="full" height="1056" version="1.1" width="816.0" xmlns="http://www.w3.org/2000/svg" xmlns:ev="http://www.w3.org/2001/xml-events" xmlns:xlink="http://www.w3.org/1999/xlink"><defs /><line stroke="rgb(0%,0%,0%)" x1="46.7059477286983" x2="239.94813261864846" y1="47.858280300246534" y2="48.36598440645388" /><line stroke="rgb(0%,0%,0%)" x1="240.4237999187713" x2="240.06715247429906" y1="46.653750324474395" y2="59.626187274854765" /><line stroke="rgb(0%,0%,0%)" x1="241.50985477629555" x2="50.09154064134586" y1="62.1878105827898" y2="59.46673466281624" /><line stroke="rgb(0%,0%,0%)" x1="46.1658314210835" x2="47.33153646276041" y1="59.440503105449906" y2="72.42786928668887" /><line stroke="rgb(0%,0%,0%)" x1="47.756317807845285" x2="239.23783237703807" y1="73.62275860132036" y2="71.9037743468746" /><line stroke="rgb(0%,0%,0%)" x1="240.03748248079245" x2="241.79232152148992" y1="71.9063033528388" y2="81.6943065412282" /><line stroke="rgb(0%,0%,0%)" x1="238.50938929729338" x2="48.9241530802532" y1="82.86306764307965" y2="82.62956843767886" /><line stroke="rgb(0%,0%,0%)" x1="47.045174239464714" x2="47.53318241164587" y1="81.77485025402028" y2="91.81840879013876" /><line stroke="rgb(0%,0%,0%)" x1="47.76953618199278" x2="239.64053717505956" y1="92.76795495059994" y2="91.86164738617533" /><line stroke="rgb(0%,0%,0%)" x1="239.61201690959072" x2="240.01759781674681" y1="92.77673636384846" y2="101.12432973551704" /><line stroke="rgb(0%,0%,0%)" x1="241.35836973935787" x2="47.2214125295056" y1="100.95013970379634" y2="101.19910081662483" /><line stroke="rgb(0%,0%,0%)" x1="49.64813347167802" x2="49.26811255110534" y1="100.61902136210821" y2="110.40076784309292" /><line stroke="rgb(0%,0%,0%)" x1="47.80182869178345" x2="241.3826956910593" y1="108.81730511448956" y2="108.45207934115076" /><line stroke="rgb(0%,0%,0%)" x1="238.97769608070567" x2="241.7465686757599" y1="108.3028165559346" y2="116.01269796850555" /><line stroke="rgb(0%,0%,0%)" x1="239.92913924370728" x2="46.67775745001687" y1="116.8601404531794" y2="116.75446175054661" /><line stroke="rgb(0%,0%,0%)" x1="48.47086813107891" x2="48.71790480864954" y1="116.67266078946774" y2="122.75086237439808" /><line stroke="rgb(0%,0%,0%)" x1="49.472221310460554" x2="240.27521993963384" y1="122.91791017619177" y2="123.29876454096362" /><line stroke="rgb(0%,0%,0%)" x1="242.32541212876203" x2="238.90027684453335" y1="123.14237738260162" y2="130.92363082592706" /><line stroke="rgb(0%,0%,0%)" x1="240.61766606969934" x2="48.24767615367273" y1="128.81159731264987" y2="129.10026868442125" /><line stroke="rgb(0%,0%,0%)" x1="49.31807398761707" x2="48.45147552318868" y1="129.0735957470314" y2="136.5773384330488" /><line stroke="rgb(0%,0%,0%)" x1="47.54104454907006" x2="240.70351482950898" y1="134.68573085648651" y2="135.17464412318176" /><line stroke="rgb(0%,0%,0%)" x1="240.63204165645595" x2="239.3252573387609" y1="136.4778785422671" y2="140.6912940442375" /><line stroke="rgb(0%,0%,0%)" x1="239.45795160582566" x2="46.99301041497805" y1="142.37901479982568" y2="139.636435776098" /><line stroke="rgb(0%,0%,0%)" x1="49.215508562695625" x2="47.205767157255146" y1="140.15883135279313" y2="145.1140373426077" /><line stroke="rgb(0%,0%,0%)" x1="46.34037065976561" x2="240.82382874023602" y1="147.2860242316175" y2="145.1335019298398" /><line stroke="rgb(0%,0%,0%)" x1="239.54918918897027" x2="239.56255387553068" y1="146.89812183887096" y2="153.85406257249298" /><line stroke="rgb(0%,0%,0%)" x1="239.53464320893642" x2="48.72220733706844" y1="151.77777472169103" y2="151.20007513982753" /><line stroke="rgb(0%,0%,0%)" x1="49.50529174293559" x2="50.700436106831646" y1="150.3485278254114" y2="158.4350655334531" /><line stroke="rgb(0%,0%,0%)" x1="48.178934434963246" x2="240.99501770229128" y1="156.07394632096836" y2="155.90402502201673" /><line stroke="rgb(0%,0%,0%)" x1="238.14216030561113" x2="240.73974401472367" y1="156.9919108037657" y2="159.68592432840472" /><line stroke="rgb(0%,0%,0%)" x1="240.88472740971477" x2="48.20432162764325" y1="160.86668096346597" y2="159.15282363702835" /><line stroke="rgb(0%,0%,0%)" x1="48.47243000488194" x2="47.90112747312648" y1="160.78378196138183" y2="163.5594855931768" /><line stroke="rgb(0%,0%,0%)" x1="46.88519165400823" x2="240.5368086032674" y1="166.0397066862472" y2="166.12357692642075" /><line stroke="rgb(0%,0%,0%)" x1="239.65688308657772" x2="240.98105278917296" y1="164.1092802417937" y2="170.38568048444247" /><line stroke="rgb(0%,0%,0%)" x1="240.2309800558186" x2="49.56460663095727" y1="171.2885502456288" y2="170.77144491336816" /><line stroke="rgb(0%,0%,0%)" x1="48.26706986570153" x2="47.65354355711349" y1="169.199858924993" y2="172.78957942751413" /><line stroke="rgb(0%,0%,0%)" x1="47.99106675682829" x2="239.5913333183277" y1="174.5151464128348" y2="172.46441531217408" /><line stroke="rgb(0%,0%,0%)" x1="240.57810780914937" x2="239.5791184494717" y1="173.58969750095517" y2="176.96908106796417" /><line stroke="rgb(0%,0%,0%)" x1="240.36630689493725" x2="49.64876062118871" y1="178.57927580696608" y2="176.32109439076865" /><line stroke="rgb(0%,0%,0%)" x1="46.649912939239854" x2="47.17746009351151" y1="178.21213085688512" y2="180.29981565051716" /><line stroke="rgb(0%,0%,0%)" x1="46.93556463466941" x2="240.5996728397435" y1="180.49782964564895" y2="180.42969769921945" /><line stroke="rgb(0%,0%,0%)" x1="241.0503909684521" x2="241.30449249928316" y1="181.10692169758633" y2="185.52314745215662" /><line stroke="rgb(0%,0%,0%)" x1="241.52356491976147" x2="47.25214228318394" y1="183.03957405918476" y2="184.66493109036966" /><line stroke="rgb(0%,0%,0%)" x1="47.08033898992575" x2="47.6910672311026" y1="184.9883856221458" y2="187.4454391659022" /><line stroke="rgb(0%,0%,0%)" x1="48.034889272277525" x2="240.41847638397584" y1="187.63164115758772" y2="189.5420944933417" /><line stroke="rgb(0%,0%,0%)" x1="241.00852542460512" x2="240.60285674667062" y1="189.21019245105225" y2="192.33256047220763" /><line stroke="rgb(0%,0%,0%)" x1="239.70363100910666" x2="48.37955401408218" y1="191.1510778556174" y2="190.1406423691706" /><line stroke="rgb(0%,0%,0%)" x1="48.18951125564992" x2="47.96690987092151" y1="193.3459678062421" y2="192.98695267008125" /><line stroke="rgb(0%,0%,0%)" x1="48.70411803412316" x2="240.07277235799197" y1="193.52753152370272" y2="192.09925916606448" /><line stroke="rgb(0%,0%,0%)" x1="238.48324949390852" x2="238.95617261131838" y1="196.0681042103235" y2="196.67740579835603" /><line stroke="rgb(0%,0%,0%)" x1="240.24366339027716" x2="47.93056314010031" y1="197.17840577950207" y2="197.9110397991502" /><line stroke="rgb(0%,0%,0%)" x1="47.47955691610499" x2="47.51213161486954" y1="198.1301925701105" y2="200.78127319682142" /><line stroke="rgb(0%,0%,0%)" x1="47.24876471732023" x2="240.41504296616853" y1="200.3192776580733" y2="201.46829637614354" /><line stroke="rgb(0%,0%,0%)" x1="241.03718580207965" x2="239.93547516134996" y1="198.46755156197753" y2="204.87036683493784" /><line stroke="rgb(0%,0%,0%)" x1="239.59110221930558" x2="48.273699960413325" y1="203.01104749334465" y2="203.39795296444558" /><line stroke="rgb(0%,0%,0%)" x1="47.77338828620189" x2="48.01865237150815" y1="205.6671562919896" y2="204.30274653655735" /><line stroke="rgb(0%,0%,0%)" x1="47.37452478579669" x2="238.4515791331024" y1="207.5165526201651" y2="208.25093322000347" /><line stroke="rgb(0%,0%,0%)" x1="240.41887611063697" x2="238.66127043691412" y1="206.72481331013466" y2="208.59454597535483" /><line stroke="rgb(0%,0%,0%)" x1="238.60147063645053" x2="48.9064594054285" y1="210.08963066007894" y2="207.5987891908046" /><line stroke="rgb(0%,0%,0%)" x1="49.22511005994454" x2="48.66442547473367" y1="207.9326692712406" y2="211.23159051539517" /><line stroke="rgb(0%,0%,0%)" x1="46.481054516230536" x2="240.72069824158655" y1="212.14171325028965" y2="211.67597418691923" /><line stroke="rgb(0%,0%,0%)" x1="240.32702952685727" x2="237.78955131462126" y1="211.72608874516862" y2="214.92108547095995" /><line stroke="rgb(0%,0%,0%)" x1="241.96216281328643" x2="48.738353618253846" y1="215.5832476171353" y2="213.64492814020025" /><line stroke="rgb(0%,0%,0%)" x1="47.27929349218655" x2="49.04268290597566" y1="214.63986809349356" y2="214.88948461229097" /><line stroke="rgb(0%,0%,0%)" x1="48.87119025155247" x2="240.31740805235822" y1="218.17076497673352" y2="218.1077450821911" /><line stroke="rgb(0%,0%,0%)" x1="241.61051787624308" x2="241.2253161297654" y1="217.11966296744967" y2="220.46430105325368" /><line stroke="rgb(0%,0%,0%)" x1="239.93157353605608" x2="48.46091194422335" y1="218.8998896168199" y2="217.7803551680963" /><line stroke="rgb(0%,0%,0%)" x1="49.84588960983318" x2="48.8202735297058" y1="220.4227715611557" y2="223.494642886556" /><line stroke="rgb(0%,0%,0%)" x1="47.71600516039186" x2="239.49839780426333" y1="220.99024499521275" y2="221.65427066130292" /><line stroke="rgb(0%,0%,0%)" x1="238.3699092282305" x2="239.79074276852373" y1="221.68442876029223" y2="223.3943715763859" /><line stroke="rgb(0%,0%,0%)" x1="241.52854962650648" x2="48.80314163857613" y1="222.35513968412894" y2="224.90267551908764" /><line stroke="rgb(0%,0%,0%)" x1="48.3804245146292" x2="48.16239563746748" y1="225.13706968167386" y2="225.89269910812268" /><line stroke="rgb(0%,0%,0%)" x1="49.914885338852166" x2="239.93245937742452" y1="228.19595835352595" y2="227.23189967286373" /><line stroke="rgb(0%,0%,0%)" x1="240.00947482605213" x2="239.99847973379607" y1="225.22496537921984" y2="231.26976500701002" /><line stroke="rgb(0%,0%,0%)" x1="240.27683780881742" x2="46.74509528150058" y1="228.4480047620888" y2="226.95990427606304" /><line stroke="rgb(0%,0%,0%)" x1="49.04839823361722" x2="49.71730356665039" y1="227.71290037796794" y2="231.15958672732285" /><line stroke="rgb(0%,0%,0%)" x1="49.410067419838924" x2="239.83774363118047" y1="231.59168151576415" y2="230.75415683772857" /><line stroke="rgb(0%,0%,0%)" x1="239.88700845962958" x2="238.78980590904482" y1="230.7381180373019" y2="233.22686943753484" /><line stroke="rgb(0%,0%,0%)" x1="240.89664661937172" x2="50.0432796071473" y1="235.0778091141889" y2="233.33680741449245" /><line stroke="rgb(0%,0%,0%)" x1="48.22452617247475" x2="48.30504471945699" y1="232.41521611805337" y2="233.6394081397028" /><line stroke="rgb(0%,0%,0%)" x1="47.88854991057463" x2="239.12529482927903" y1="235.5074286600867" y2="235.31617190559922" /><line stroke="rgb(0%,0%,0%)" x1="240.65854247789156" x2="240.88165035213154" y1="234.7023156418319" y2="237.2943068268732" /><line stroke="rgb(0%,0%,0%)" x1="241.306001838141" x2="47.47905358934863" y1="236.92239184959428" y2="236.09402273479887" /><line stroke="rgb(0%,0%,0%)" x1="48.50890944589238" x2="46.969549389186234" y1="237.34480599833253" y2="239.00152757165228" /><line stroke="rgb(0%,0%,0%)" x1="47.69723927653951" x2="239.70061238974162" y1="238.73943803511492" y2="240.80943628154102" /><line stroke="rgb(0%,0%,0%)" x1="240.9433772668978" x2="241.13758761720996" y1="238.56492728840473" y2="240.99940795259266" /></svg>